<mxfile host="Electron" agent="Mozilla/5.0 (Windows NT 10.0; Win64; x64) AppleWebKit/537.36 (KHTML, like Gecko) draw.io/24.7.17 Chrome/128.0.6613.36 Electron/32.0.1 Safari/537.36" version="24.7.17">
  <diagram name="Page-1" id="2YBvvXClWsGukQMizWep">
    <mxGraphModel dx="1221" dy="1677" grid="1" gridSize="10" guides="1" tooltips="1" connect="1" arrows="1" fold="1" page="1" pageScale="1" pageWidth="850" pageHeight="1100" math="0" shadow="0">
      <root>
        <mxCell id="0" />
        <mxCell id="1" parent="0" />
        <mxCell id="-qZF520ChQVtmTOYv1ty-4" value="&amp;nbsp;data&amp;nbsp;" style="edgeStyle=orthogonalEdgeStyle;rounded=0;orthogonalLoop=1;jettySize=auto;html=1;exitX=1;exitY=0.5;exitDx=0;exitDy=0;entryX=0;entryY=0.5;entryDx=0;entryDy=0;" edge="1" parent="1" source="-qZF520ChQVtmTOYv1ty-1" target="-qZF520ChQVtmTOYv1ty-2">
          <mxGeometry relative="1" as="geometry" />
        </mxCell>
        <mxCell id="-qZF520ChQVtmTOYv1ty-1" value="&lt;b&gt;default&lt;/b&gt; profile in &lt;b&gt;mascot.config&lt;/b&gt;" style="rounded=1;whiteSpace=wrap;html=1;" vertex="1" parent="1">
          <mxGeometry x="50" y="40" width="120" height="60" as="geometry" />
        </mxCell>
        <mxCell id="-qZF520ChQVtmTOYv1ty-5" value="&amp;nbsp;data&amp;nbsp;" style="edgeStyle=orthogonalEdgeStyle;rounded=0;orthogonalLoop=1;jettySize=auto;html=1;exitX=1;exitY=0.5;exitDx=0;exitDy=0;" edge="1" parent="1" source="-qZF520ChQVtmTOYv1ty-2" target="-qZF520ChQVtmTOYv1ty-3">
          <mxGeometry relative="1" as="geometry" />
        </mxCell>
        <mxCell id="-qZF520ChQVtmTOYv1ty-6" value="&amp;nbsp;individual overrides&amp;nbsp;" style="edgeStyle=orthogonalEdgeStyle;rounded=0;orthogonalLoop=1;jettySize=auto;html=1;exitX=0.5;exitY=0;exitDx=0;exitDy=0;entryX=0.5;entryY=0;entryDx=0;entryDy=0;" edge="1" parent="1" source="-qZF520ChQVtmTOYv1ty-2" target="-qZF520ChQVtmTOYv1ty-1">
          <mxGeometry relative="1" as="geometry" />
        </mxCell>
        <mxCell id="-qZF520ChQVtmTOYv1ty-2" value="any other profile in &lt;b&gt;mascot.config&lt;/b&gt;&lt;br&gt;(loaded via &lt;b&gt;--cp&lt;/b&gt;)" style="rounded=1;whiteSpace=wrap;html=1;" vertex="1" parent="1">
          <mxGeometry x="260" y="40" width="120" height="60" as="geometry" />
        </mxCell>
        <mxCell id="-qZF520ChQVtmTOYv1ty-7" style="edgeStyle=orthogonalEdgeStyle;rounded=0;orthogonalLoop=1;jettySize=auto;html=1;exitX=0.5;exitY=1;exitDx=0;exitDy=0;entryX=0.5;entryY=1;entryDx=0;entryDy=0;" edge="1" parent="1" source="-qZF520ChQVtmTOYv1ty-3" target="-qZF520ChQVtmTOYv1ty-2">
          <mxGeometry relative="1" as="geometry" />
        </mxCell>
        <mxCell id="-qZF520ChQVtmTOYv1ty-8" value="&amp;nbsp;individual overrides&amp;nbsp;" style="edgeLabel;html=1;align=center;verticalAlign=middle;resizable=0;points=[];" vertex="1" connectable="0" parent="-qZF520ChQVtmTOYv1ty-7">
          <mxGeometry x="-0.0427" y="-1" relative="1" as="geometry">
            <mxPoint as="offset" />
          </mxGeometry>
        </mxCell>
        <mxCell id="-qZF520ChQVtmTOYv1ty-3" value="command line arguments" style="rounded=1;whiteSpace=wrap;html=1;" vertex="1" parent="1">
          <mxGeometry x="470" y="40" width="120" height="60" as="geometry" />
        </mxCell>
      </root>
    </mxGraphModel>
  </diagram>
</mxfile>
